<svg id="visual" viewBox="0 0 2560 1303" width="2560" height="1303" xmlns="http://www.w3.org/2000/svg" xmlns:xlink="http://www.w3.org/1999/xlink" version="1.1"><rect x="0" y="0" width="2560" height="1303" fill="#ffdfca"></rect><defs><linearGradient id="grad1_0" x1="49.1%" y1="0%" x2="100%" y2="100%"><stop offset="10.706062931696087%" stop-color="#ee9f65" stop-opacity="1"></stop><stop offset="89.29393706830392%" stop-color="#ee9f65" stop-opacity="1"></stop></linearGradient></defs><defs><linearGradient id="grad1_1" x1="49.1%" y1="0%" x2="100%" y2="100%"><stop offset="10.706062931696087%" stop-color="#ee9f65" stop-opacity="1"></stop><stop offset="89.29393706830392%" stop-color="#ffdfca" stop-opacity="1"></stop></linearGradient></defs><defs><linearGradient id="grad2_0" x1="0%" y1="0%" x2="50.9%" y2="100%"><stop offset="10.706062931696087%" stop-color="#ee9f65" stop-opacity="1"></stop><stop offset="89.29393706830392%" stop-color="#ee9f65" stop-opacity="1"></stop></linearGradient></defs><defs><linearGradient id="grad2_1" x1="0%" y1="0%" x2="50.9%" y2="100%"><stop offset="10.706062931696087%" stop-color="#ffdfca" stop-opacity="1"></stop><stop offset="89.29393706830392%" stop-color="#ee9f65" stop-opacity="1"></stop></linearGradient></defs><g transform="translate(2560, 0)"><path d="M0 1303C-88.1 1183.7 -176.2 1064.4 -276.4 1031.6C-376.6 998.8 -489 1052.4 -609.5 1055.7C-730 1059 -858.6 1011.9 -921.4 921.4C-984.1 830.8 -980.8 696.9 -1032.3 596C-1083.8 495.1 -1189.9 427.2 -1244.1 333.4C-1298.3 239.5 -1300.7 119.8 -1303 0L0 0Z" fill="#f9bf97"></path><path d="M0 651.5C-44 591.9 -88.1 532.2 -138.2 515.8C-188.3 499.4 -244.5 526.2 -304.7 527.8C-365 529.5 -429.3 505.9 -460.7 460.7C-492 415.4 -490.4 348.5 -516.2 298C-541.9 247.5 -594.9 213.6 -622.1 166.7C-649.2 119.8 -650.3 59.9 -651.5 0L0 0Z" fill="#ee9f65"></path></g><g transform="translate(0, 1303)"><path d="M0 -1303C87.9 -1200.9 175.8 -1098.8 291.2 -1086.7C406.5 -1074.6 549.4 -1152.5 651.5 -1128.4C753.6 -1104.4 815.1 -978.4 871.2 -871.2C927.2 -763.9 977.8 -675.5 1008.9 -582.5C1040 -489.5 1051.5 -391.9 1097.3 -294C1143 -196.2 1223 -98.1 1303 0L0 0Z" fill="#f9bf97"></path><path d="M0 -651.5C44 -600.4 87.9 -549.4 145.6 -543.3C203.3 -537.3 274.7 -576.2 325.7 -564.2C376.8 -552.2 407.6 -489.2 435.6 -435.6C463.6 -382 488.9 -337.8 504.5 -291.3C520 -244.7 525.8 -195.9 548.6 -147C571.5 -98.1 611.5 -49 651.5 0L0 0Z" fill="#ee9f65"></path></g></svg>